# xmcd
# Copyright (C) 1995-1998 Ti Kan
#
# Track frame offsets:
#       150
#       19393
#       37046
#       49326
#       85094
#       101954
#       124451
#       138670
#       142883
#       164017
#       180075
#       199811
#       214605
#
# Disc length: 3071 seconds
#
# Revision: 2
# Processed by: cddbd v1.4PL0 Copyright (c) Steve Scherf et al.
# Submitted via: CD-Transfer v1.0
#
DISCID=c20bfd0d
DTITLE=Lovebugs - 13 Songs With A View
DYEAR=2003
DGENRE=
TTITLE0=Beautiful You Are
TTITLE1=A Love Like Tides
TTITLE2=Shake Down
TTITLE3=Grounded
TTITLE4=The Aftermoon
TTITLE5=Summer And The City
TTITLE6=Crush
TTITLE7=Mellowdy
TTITLE8='72
TTITLE9=Free Reeling
TTITLE10=24 Hour Party People
TTITLE11=Island In The Sky
TTITLE12=Tomorrows
EXTD=
EXTT0=
EXTT1=
EXTT2=
EXTT3=
EXTT4=
EXTT5=
EXTT6=
EXTT7=
EXTT8=
EXTT9=
EXTT10=
EXTT11=
EXTT12=
PLAYORDER=
